<?xml version="1.0" encoding="UTF-8"?>
<svg id="a" data-name="Layer 1" xmlns="http://www.w3.org/2000/svg" viewBox="0 0 320.5802 225.8223">
  <defs>
    <style>
      .b {
        fill: #fff;
      }
    </style>
  </defs>
  <g>
    <path class="b" d="M120.3383,174.3123c-.1066.5349-.1594,1.0955-.1594,1.719v4.3878c0,5.0355,4.0964,9.1302,9.1289,9.1302,5.0355,0,9.1302-4.0948,9.1302-9.1302v-4.3878c0-5.0339-4.0948-9.1302-9.1302-9.1302-2.4072,0-4.6913.9587-6.4299,2.6987-1.2998,1.2983-2.1775,2.9272-2.5396,4.7125ZM124.2229,176.0313c0-.3561.0238-.6582.0765-.9227.2029-.9962.7002-1.9144,1.4365-2.6507.977-.9768,2.2437-1.5132,3.572-1.5132,2.8056,0,5.0866,2.2825,5.0866,5.0866v4.3878c0,2.8055-2.281,5.088-5.0866,5.088-2.7575,0-5.0849-2.3306-5.0849-5.088v-4.3878Z"/>
    <path class="b" d="M37.6906,165.2975h86.4986c7.856,0,14.2498-6.3923,14.2498-14.2484v-47.447c0-7.8574-6.3938-14.2498-14.2498-14.2498H37.6906c-7.8725,0-14.2785,6.3924-14.2785,14.2498v47.447c0,7.856,6.406,14.2484,14.2785,14.2484ZM124.1891,161.2553H37.6906c-5.6457,0-10.2363-4.5787-10.2363-10.2062v-47.447c0-5.629,4.5906-10.2062,10.2363-10.2062h86.4986c5.629,0,10.2062,4.5772,10.2062,10.2062v18.5972c-2.0101-2.4281-5.0466-3.9755-8.4452-3.9755-6.0529,0-10.9604,4.9063-10.9604,10.9591,0,6.0528,4.9075,10.9605,10.9604,10.9605,3.3986,0,6.4352-1.5479,8.4452-3.9764v14.8821c0,5.6275-4.5772,10.2062-10.2062,10.2062Z"/>
    <path class="b" d="M22.8347,170.6524c-1.74,1.7387-2.6988,4.0347-2.6988,6.4616v4.3878c0,2.7003,1.1947,5.2398,3.2759,6.9649,1.5882,1.4034,3.629,2.1653,5.853,2.1653,5.0354,0,9.1302-4.0963,9.1302-9.1302v-4.3878c0-4.6448-3.4847-8.5502-8.107-9.0882-.3546-.036-.6882-.0421-1.0232-.0421-2.4253,0-4.7094.9467-6.43,2.6688ZM24.1797,177.114c0-1.348.5364-2.6267,1.5131-3.6034.9933-.9918,2.3338-1.4636,3.7251-1.4831.1429,0,.2825.0015.4254.0165,2.562.2961,4.508,2.4779,4.508,5.0701v4.3878c0,2.8055-2.2812,5.088-5.0866,5.088-1.2262,0-2.3413-.4133-3.2262-1.1931-1.1993-.9962-1.8589-2.4012-1.8589-3.8949v-4.3878Z"/>
    <path class="b" d="M65.3908,116.4584c6.0527,0,10.959,4.9078,10.959,10.9605,0,6.0528-4.9063,10.9591-10.959,10.9591-6.0527,0-10.9606-4.9063-10.9606-10.9591,0-6.0527,4.9079-10.9605,10.9606-10.9605Z"/>
    <path class="b" d="M0,96.7938v21.4522c0,4.4043,3.5822,7.9867,7.9866,7.9867h1.1945c1.6155,0,3.1152-.4896,4.3734-1.3172v67.2345c0,5.3321,2.7607,10.1316,7.1384,12.8459v7.8343c0,7.1633,5.8273,12.9921,12.9892,12.9921,7.1632,0,12.9921-5.8288,12.9921-12.9921v-5.5256h66.8279v5.5256c0,7.1633,5.8289,12.9921,12.9921,12.9921s12.9921-5.8288,12.9921-12.9921v-7.8646c4.43-2.73,7.1721-7.5268,7.1721-12.8156v-66.172c1.3869,1.1602,3.1485,1.8871,5.0943,1.8871h1.1946c4.4044,0,7.9867-3.5824,7.9867-7.9853v-22.1014c0-4.0467-3.2939-7.339-7.339-7.339h-1.8423c-1.9458,0-3.7073.7268-5.0943,1.887v-19.2064c0-8.3549-6.7996-15.1545-15.156-15.1545H28.7104c-8.3564,0-15.1559,6.7997-15.1559,15.1545v17.0043c-1.2582-.8276-2.7579-1.3172-4.3734-1.3172h-1.1945C3.5822,88.8071,0,92.3894,0,96.7938ZM147.8083,98.4246c0-2.1728,1.7701-3.9415,3.9445-3.9415h1.8423c1.8167,0,3.2968,1.4786,3.2968,3.2954v22.1014c0,2.1728-1.7687,3.9415-3.9445,3.9415h-1.1946c-2.1744,0-3.9445-1.7687-3.9445-3.9415v-21.4552ZM131.4422,207.3046h.0603c1.3553,0,2.6683-.1917,3.9371-.5386.001-.0003.0021-.0004.0031-.0006v6.0648c0,4.9348-4.0151,8.9499-8.9485,8.9499s-8.9484-4.0151-8.9484-8.9499v-5.5253h13.8921c.0015,0,.0029-.0003.0042-.0003ZM24.7351,206.7654c.0741.0205.1522.0271.2267.0465.5288.1378,1.0617.2487,1.5986.328.1227.0178.2467.0297.3702.0445.5914.0723,1.1848.1202,1.7798.1202h.0253c.0013,0,.0026.0003.004.0003h13.8908v5.5253c0,4.9348-4.0151,8.9499-8.9484,8.9499-4.9349,0-8.9471-4.0151-8.9471-8.9499v-6.0648ZM17.5967,73.12c0-6.1265,4.9861-11.1109,11.1138-11.1109h102.7921c6.1279,0,11.1138,4.9844,11.1138,11.1109v119.03c0,3.9843-2.1215,7.5882-5.5482,9.5639l-.5525.294c-1.5643.831-3.2728,1.2533-5.0777,1.2533h-17.9358s0,.0012,0,.0012H46.6743v-.0012h-17.9345c-.0565,0-.1108-.0091-.1671-.0099-.4709-.0061-.9417-.0447-1.4111-.1135-.1381-.0198-.2733-.0499-.4102-.0748-.3936-.0731-.7853-.1676-1.1743-.2842-.1451-.0441-.2909-.0858-.434-.1362-.3034-.1031-.5899-.2342-.8792-.3605-.2005-.0913-.4056-.1699-.6017-.2741l-.3406-.1814c-3.4889-1.9305-5.7249-5.5805-5.7249-9.6764v-119.03ZM4.0421,96.7938c0-2.1759,1.7701-3.9445,3.9445-3.9445h1.1945c2.1744,0,3.9445,1.7687,3.9445,3.9445v21.4522c0,2.1759-1.7701,3.9445-3.9445,3.9445h-1.1945c-2.1744,0-3.9445-1.7687-3.9445-3.9445v-21.4522Z"/>
    <path class="b" d="M131.7755,76.8363v-1.1376c0-4.2435-3.4548-7.6967-7.6983-7.6967H35.9061c-4.2435,0-7.6966,3.4532-7.6966,7.6967v1.1376c0,4.2451,3.4531,7.6982,7.6966,7.6982h88.1711c4.2435,0,7.6983-3.4531,7.6983-7.6982ZM127.7318,76.8363c0,2.0166-1.6379,3.656-3.6545,3.656H35.9061c-2.0165,0-3.6543-1.6394-3.6543-3.656v-1.1376c0-2.0151,1.6379-3.6545,3.6543-3.6545h88.1711c2.0167,0,3.6545,1.6394,3.6545,3.6545v1.1376Z"/>
    <path class="b" d="M48.8896,174.5686c.9317,0,1.9429.2825,2.7528.8084,7.8487,4.8552,16.8721,7.4443,26.1376,7.4443,9.2235,0,18.2064-2.5486,26.0566-7.4037.8084-.4854,1.7791-.7694,2.7108-.7694,1.2532,0,2.3065.4463,2.9932,1.2953.4854.5665.6477,1.3749.4854,2.266-.2012,1.2953-1.0923,2.5485-2.3876,3.3585-8.9816,5.5419-19.2989,8.4556-29.8584,8.4556-10.6013,0-20.9593-2.9543-29.9424-8.5367-1.2952-.7694-2.1847-2.0242-2.4268-3.3586-.1216-.849.0407-1.6589.5261-2.266.6868-.8084,1.74-1.2937,2.9527-1.2937Z"/>
  </g>
  <g>
    <path class="b" d="M226.8655,170.2186c.403.032.8028.103,1.1993.216,3.604,1.1398,7.3601,1.8847,11.111,2.183,14.8027,1.1771,29.1978-4.2535,39.4989-14.8802,1.0575-1.0525,2.5262-1.6653,3.8579-1.5594.6861.0546,1.2738.3032,1.8143.6718.5731.451.9589,1.2113,1.0128,2.0688.1385,1.3104-.464,2.7639-1.5246,3.8553-11.8064,12.1727-28.2914,18.3702-45.2302,17.0232-4.3157-.3432-8.5927-1.1702-12.7472-2.515-1.4663-.4422-2.6465-1.4285-3.1587-2.6466-.3419-.7989-.396-1.6549-.0598-2.3186.6412-1.4097,2.3315-2.2491,4.2263-2.0984Z"/>
    <path class="b" d="M200.4619,173.1949c-1.1294,1.9934-1.4319,4.2621-.8639,6.4087l1.0103,3.8248c.1918.7162.4442,1.3332.7788,1.8844,1.3089,2.5145,3.9301,4.1474,6.7538,4.372.9227.0734,1.868-.0037,2.7949-.2481,4.5071-1.1927,7.2014-5.8263,6.0102-10.3318l-1.012-3.8234c-.2498-.953-.7035-1.901-1.3076-2.7389-2.026-2.8429-5.655-4.1625-9.0198-3.2679-2.1836.5786-4.0112,1.9708-5.1445,3.9202ZM203.9665,175.2056c.5813-.9969,1.5344-1.7231,2.6724-2.0245.4773-.1264.9645-.1675,1.4424-.1295,1.2777.1016,2.4883.7632,3.2629,1.8468.3215.4492.5574.9337.682,1.414l1.0131,3.8265c.6211,2.3497-.786,4.7672-3.1344,5.39-1.9657.513-4.0648-.4076-4.9987-2.1973-.1925-.3289-.3005-.5998-.3927-.9387l-1.0089-3.8232c-.2954-1.1194-.1312-2.3122.4619-3.364Z"/>
    <path class="b" d="M185.3784,96.2261c-2.2782,3.9115-2.898,8.4629-1.7485,12.8127l10.7292,40.5738c1.1496,4.3483,3.9389,7.9996,7.8506,10.2748,2.2346,1.3007,4.6765,2.0602,7.1721,2.2586,1.874.149,3.7762-.0192,5.6409-.5132l74.5123-19.7023c9.0109-2.3827,14.4042-11.6495,12.0201-20.6621l-10.7275-40.5751c-2.3842-9.011-11.6612-14.4096-20.6651-12.0204l-74.5093,19.7025c-4.3499,1.1495-7.9995,3.9374-10.2749,7.8506ZM188.8708,98.2585c1.7338-2.9795,4.5105-5.1027,7.8149-5.9765l74.5109-19.7039c1.4382-.3801,2.8887-.4984,4.2953-.3866,5.2922.4208,9.9968,4.1189,11.4291,9.5359l10.7277,40.5736c.8722,3.3058.401,6.7671-1.3343,9.7464-1.7339,2.9795-4.5075,5.1029-7.8135,5.9767l-74.5123,19.7023c-3.3027.871-6.7655.4011-9.7465-1.3328-2.9796-1.7323-5.1028-4.509-5.9765-7.8149l-10.7293-40.5737c-.8722-3.3058-.401-6.7671,1.3344-9.7464Z"/>
    <path class="b" d="M292.2765,145.2976c-.9164,1.629-1.3185,3.3879-1.19,5.1271.0182.4537.109.9991.2698,1.6118l1.0781,4.0714c.986,3.7324,4.2264,6.2798,7.8724,6.5698.9677.077,1.9661-.0049,2.9592-.2681,2.2896-.6048,4.204-2.064,5.3949-4.1114,1.1908-2.0458,1.5133-4.4336.9084-6.7217l-1.0785-4.0683c-.6012-2.2773-2.0578-4.187-4.1047-5.3823-2.0498-1.1986-4.4402-1.5244-6.727-.9179-2.2494.5914-4.1603,2.0448-5.3827,4.0897ZM295.774,147.3228c.6484-1.0835,1.6952-1.8867,2.9175-2.207.5314-.1431,1.0733-.1905,1.6066-.1481.713.0567,1.4116.2765,2.0528.6486,1.1135.6508,1.9082,1.6893,2.235,2.9258l1.0768,4.0683c.3277,1.244.1535,2.5432-.4941,3.6554-.6479,1.1137-1.6893,1.9082-2.9365,2.2371-2.5746.6816-5.212-.8606-5.8913-3.4275l-1.0769-4.0683c-.0865-.334-.1345-.6031-.1456-.8226-.0726-1.0021.1553-1.9714.6557-2.8617Z"/>
    <path class="b" d="M158.0027,110.0366l5.3377,20.1882c.8504,3.2196,3.6483,5.4169,6.7925,5.6669.8359.0665,1.6961-.0038,2.5522-.2282l.0002-.0029,1.3381-.3534c1.9677-.5188,3.6175-1.779,4.6476-3.5482.3224-.5546.544-1.1432.7177-1.743l16.7257,63.2555c1.4136,5.3492,5.8443,9.5153,11.286,10.6159.2038.046.4185.0581.626.0937l1.7363,6.5657c.8549,3.238,2.9317,5.9552,5.842,7.6489,1.6642.9659,3.4824,1.5326,5.3383,1.6802,1.3945.1109,2.811-.0147,4.2014-.382,3.2381-.8549,5.9553-2.9316,7.6491-5.8434,1.6937-2.9118,2.1546-6.3001,1.2981-9.5382l-1.4092-5.3327,58.5438-15.4804,3.9863,14.8547c.8354,3.1347,2.8524,5.7595,5.6758,7.389,1.6633.9605,3.4875,1.5063,5.3473,1.6208,1.2944.0797,2.6045-.049,3.8918-.3914,3.138-.8412,5.7615-2.8612,7.3886-5.6939,1.6252-2.8252,2.0527-6.1035,1.2019-9.2317l-3.5941-16.2248c.6633-.5386,1.2975-1.119,1.8701-1.7753,3.1817-3.71,4.3351-8.6983,3.1017-13.3579l-16.5501-62.5914c1.176.9238,2.6068,1.5067,4.125,1.6274.8358.0665,1.6961-.0038,2.5523-.2296l.0016-.0013,1.3365-.3535c1.9663-.519,3.6177-1.7805,4.6462-3.5483,1.0302-1.7707,1.3099-3.8287.788-5.7967l-5.3378-20.1867c-.5204-1.9679-1.7804-3.6192-3.5496-4.6493-1.7678-1.0284-3.8241-1.311-5.7953-.7864l-1.3381.3533c-1.9662.519-3.6176,1.7804-4.6476,3.5482-.186.3206-.3194.6594-.4562.9966l-5.0658-19.1583c-.9943-3.7618-3.411-6.9221-6.8043-8.8937-3.3961-1.9735-7.3385-2.5161-11.0958-1.52l-95.669,25.2947c-3.771.9965-6.9344,3.4146-8.9048,6.8109-1.9668,3.3891-2.5031,7.3276-1.5075,11.0908l5.2333,19.7919c-.4473-.4352-.9308-.837-1.4853-1.1594-1.7708-1.0287-3.8255-1.3126-5.7952-.7879l-1.3381.3533c-1.9678.5188-3.6192,1.7804-4.6462,3.5483-1.03,1.7692-1.3098,3.8272-.7894,5.7951ZM304.7833,92.8238l-5.3365-20.1866c-.2445-.9254-.1115-1.8947.3738-2.7289.4871-.8356,1.2638-1.4296,2.1893-1.674l1.3383-.3564c1.9172-.5092,3.8953.6429,4.4043,2.5646l5.3364,20.1867c.2445.9253.1118,1.8932-.3739,2.7303-.4869.834-1.2637,1.428-2.1891,1.6725l-1.3366.355c-1.9218.5104-3.8951-.6445-4.4058-2.5633ZM295.1354,182.2653l14.5552-3.8488c.6176-.1635,1.2143-.3835,1.801-.6253l3.3023,15.0244c.5903,2.1756.3037,4.3606-.7804,6.2481-1.0891,1.8932-2.8388,3.2443-4.9297,3.8022-2.0908.5563-4.286.2662-6.1747-.8225-1.8872-1.0887-3.2336-2.8427-3.7914-4.935l-3.9822-14.843ZM212.3207,204.0453c.5704-.0807,1.1401-.1832,1.7036-.3323l14.7591-3.9027,1.4018,5.3356c.5807,2.1942.2652,4.4936-.8855,6.4718-1.1523,1.9795-2.9934,3.3888-5.1891,3.9694-2.1924.5763-4.4921.2654-6.4718-.8854-1.9795-1.1524-3.3888-2.9934-3.9694-5.1892l-1.3487-5.4673ZM170.7299,81.4628c-.7182-2.7207-.3301-5.5735,1.097-8.0317s3.7158-4.2087,6.4429-4.931l95.6677-25.2963c1.1609-.3056,2.345-.4105,3.5149-.3174,1.5669.1246,3.104.6041,4.5145,1.4248,2.461,1.4302,4.213,3.7176,4.9317,6.4339l29.2908,110.7776c.8925,3.3737.0499,6.9938-2.25,9.6796-1.4161,1.6194-3.2439,2.7675-5.2828,3.3078l-3.9255,1.038c-.2779.0547-.5571.0913-.8328.1659l-13.7215,3.6737.0022.0083-77.1885,20.4105c-1.5906.4207-3.2385.4615-4.751.1271-3.9833-.8066-7.1939-3.8235-8.2201-7.6948l-29.2894-110.776ZM162.2843,106.2754c.4855-.8357,1.2625-1.4312,2.1878-1.6741l1.3382-.3564c.927-.2458,1.893-.1102,2.7286.3768.8357.4855,1.4311,1.2624,1.6741,2.1877l5.3378,20.1867c.2446.9254.1116,1.8947-.3738,2.7304-.487.8341-1.2624,1.4297-2.1878,1.6741l-1.3365.3535c-1.9227.5014-3.8998-.6433-4.4074-2.5633l-5.3364-20.1867c-.2445-.9253-.1118-1.8932.3752-2.7287Z"/>
    <path class="b" d="M180.7162,74.0523c-1.004,1.726-1.2784,3.7363-.771,5.6579l.3448,1.2937c.8294,3.1425,3.5591,5.2876,6.6299,5.5318.8164.0649,1.657-.0039,2.4916-.2254l83.6295-22.1128c1.9216-.5074,3.533-1.7389,4.537-3.465,1.0057-1.7275,1.2786-3.7377.7696-5.658l-.339-1.2917c-1.055-3.9821-5.1451-6.365-9.1245-5.3067l-83.6294,22.1127c-1.9199.5045-3.5328,1.736-4.5384,3.4634ZM184.21,76.0848c.4626-.7937,1.1993-1.3578,2.0785-1.5894l83.6296-22.1142c.8733-.2336,1.7947-.1061,2.59.3567.7938.4626,1.3593,1.1995,1.5925,2.0772l.3389,1.2917c.2331.8792.1072,1.7993-.3554,2.5932-.4612.7954-1.1978,1.3579-2.0756,1.5911l-83.6295,22.1127c-.8806.23-1.8008.1056-2.5915-.3568-.7938-.4626-1.3593-1.1995-1.5925-2.0772l-.3419-1.2919c-.2317-.8777-.1058-1.7977.3569-2.593Z"/>
    <path class="b" d="M213.8112,130.1755c5.9727-1.5781,12.0394.4976,15.4513,5.2852,1.052,1.4614,1.4415,3.3691.9719,4.7428-.2789.8159-.8349,1.3822-1.5543,1.5949-1.4402.4432-3.0571-.4542-4.582-2.5291-2.2989-3.2218-5.9697-3.6162-8.652-2.9084-2.6747.7083-5.6787,2.8662-6.0822,6.8032l-.0013.0165c-.2878,2.5382-1.2575,4.1177-2.7157,4.4465-.2256.0513-.4531.0679-.6763.0502-.5183-.0412-1.0251-.2654-1.4744-.6614-1.0861-.9577-1.691-2.8102-1.5032-4.6026.5997-5.8539,4.8464-10.655,10.8181-12.2377Z"/>
    <path class="b" d="M275.6641,113.8976c5.9725-1.5751,12.0376.5005,15.451,5.2897,1.051,1.4749,1.4387,3.3855.9649,4.7558-.2813.8082-.8387,1.3714-1.5453,1.576-1.4401.4432-3.0635-.4487-4.585-2.5278-2.2973-3.2217-5.9681-3.6176-8.652-2.9085-2.6747.7084-5.6787,2.8662-6.0822,6.8032l-.0019.024c-.3,2.5403-1.2712,4.1182-2.7212,4.4385-.2226.0517-.4471.0685-.6688.0509-.5183-.0412-1.0264-.2671-1.4756-.6646-1.0876-.9578-1.6926-2.8087-1.5064-4.5998.5998-5.8554,4.8482-10.6578,10.8226-12.2374Z"/>
  </g>
  <path class="b" d="M165.5882,46.6737h-.0054c-.2546,0-.5108-.0505-.7541-.1547-.2503-.1063-.4689-.2621-.6478-.4522l-20.4515-19.6077c-3.3865-2.8692-5.3276-7.0211-5.3276-11.4039,0-8.3016,6.8669-15.0552,15.3076-15.0552,4.6793,0,9.0057,2.0904,11.876,5.6074,2.8703-3.5159,7.1967-5.6074,11.8766-5.6074,8.4407,0,15.3076,6.7536,15.3076,15.0552,0,4.3817-1.9406,8.5347-5.3271,11.4039l-20.4521,19.6077c-.1789.1901-.3975.3459-.6478.4522-.2433.1042-.5.1547-.7546.1547ZM167.5126,9.5756v30.6571l17.31-16.5956c.0301-.029.0618-.0569.094-.0838,2.5438-2.1377,4.0031-5.2347,4.0031-8.4981,0-6.1789-5.1396-11.2052-11.4576-11.2052-4.1417,0-7.9116,2.1828-9.9494,5.7256ZM153.7095,3.85c-6.318,0-11.4576,5.0263-11.4576,11.2052,0,3.2635,1.4593,6.3615,4.0036,8.4981.0322.0269.0639.0548.094.0838l17.3094,16.5956V9.5756c-2.0378-3.5428-5.8083-5.7256-9.9494-5.7256Z"/>
</svg>